{
	"asset":{
		"generator":"Khronos glTF Blender I/O v4.1.62",
		"version":"2.0"
	},
	"scene":0,
	"scenes":[
		{
			"name":"Scene",
			"nodes":[
				0
			]
		}
	],
	"nodes":[
		{
			"mesh":0,
			"name":"Object_4",
			"translation":[
				0,
				2.3630058765411377,
				0
			]
		}
	],
	"animations":[
		{
			"channels":[
				{
					"sampler":0,
					"target":{
						"node":0,
						"path":"translation"
					}
				},
				{
					"sampler":1,
					"target":{
						"node":0,
						"path":"rotation"
					}
				},
				{
					"sampler":2,
					"target":{
						"node":0,
						"path":"scale"
					}
				}
			],
			"name":"Object_4Action",
			"samplers":[
				{
					"input":12,
					"interpolation":"LINEAR",
					"output":13
				},
				{
					"input":14,
					"interpolation":"STEP",
					"output":15
				},
				{
					"input":14,
					"interpolation":"STEP",
					"output":16
				}
			]
		}
	],
	"materials":[
		{
			"doubleSided":true,
			"name":"material",
			"pbrMetallicRoughness":{
				"baseColorFactor":[
					0.00807586032897234,
					0.00807586032897234,
					0.00807586032897234,
					1
				],
				"metallicFactor":0,
				"roughnessFactor":0.8083329796791077
			}
		},
		{
			"doubleSided":true,
			"name":"Griff",
			"pbrMetallicRoughness":{
				"baseColorFactor":[
					0.800000011920929,
					0.24686099588871002,
					0.01135990023612976,
					1
				],
				"metallicFactor":0,
				"roughnessFactor":0.7833330035209656
			}
		},
		{
			"doubleSided":true,
			"name":"Chrome",
			"pbrMetallicRoughness":{
				"baseColorFactor":[
					0.800000011920929,
					0.800000011920929,
					0.800000011920929,
					1
				],
				"roughnessFactor":0.1254819929599762
			}
		}
	],
	"meshes":[
		{
			"name":"Object_0",
			"primitives":[
				{
					"attributes":{
						"POSITION":0,
						"NORMAL":1,
						"TEXCOORD_0":2
					},
					"indices":3,
					"material":0
				},
				{
					"attributes":{
						"POSITION":4,
						"NORMAL":5,
						"TEXCOORD_0":6
					},
					"indices":7,
					"material":1
				},
				{
					"attributes":{
						"POSITION":8,
						"NORMAL":9,
						"TEXCOORD_0":10
					},
					"indices":11,
					"material":2
				}
			]
		}
	],
	"accessors":[
		{
			"bufferView":0,
			"componentType":5126,
			"count":388,
			"max":[
				0.2708315849304199,
				0.13781417906284332,
				0.44591888785362244
			],
			"min":[
				-0.2708315849304199,
				0,
				-0.41316378116607666
			],
			"type":"VEC3"
		},
		{
			"bufferView":1,
			"componentType":5126,
			"count":388,
			"type":"VEC3"
		},
		{
			"bufferView":2,
			"componentType":5126,
			"count":388,
			"type":"VEC2"
		},
		{
			"bufferView":3,
			"componentType":5123,
			"count":1920,
			"type":"SCALAR"
		},
		{
			"bufferView":4,
			"componentType":5126,
			"count":46,
			"max":[
				0.23605623841285706,
				0.8474575877189636,
				-0.23905158042907715
			],
			"min":[
				-0.23605623841285706,
				0.776737630367279,
				-0.3655083477497101
			],
			"type":"VEC3"
		},
		{
			"bufferView":5,
			"componentType":5126,
			"count":46,
			"type":"VEC3"
		},
		{
			"bufferView":6,
			"componentType":5126,
			"count":46,
			"type":"VEC2"
		},
		{
			"bufferView":7,
			"componentType":5123,
			"count":210,
			"type":"SCALAR"
		},
		{
			"bufferView":8,
			"componentType":5126,
			"count":1092,
			"max":[
				0.25179287791252136,
				0.8140337467193604,
				0.4626089334487915
			],
			"min":[
				-0.25179290771484375,
				0.016037361696362495,
				-0.3971264362335205
			],
			"type":"VEC3"
		},
		{
			"bufferView":9,
			"componentType":5126,
			"count":1092,
			"type":"VEC3"
		},
		{
			"bufferView":10,
			"componentType":5126,
			"count":1092,
			"type":"VEC2"
		},
		{
			"bufferView":11,
			"componentType":5123,
			"count":4530,
			"type":"SCALAR"
		},
		{
			"bufferView":12,
			"componentType":5126,
			"count":60,
			"max":[
				2.5
			],
			"min":[
				0.041666666666666664
			],
			"type":"SCALAR"
		},
		{
			"bufferView":13,
			"componentType":5126,
			"count":60,
			"type":"VEC3"
		},
		{
			"bufferView":14,
			"componentType":5126,
			"count":2,
			"max":[
				2.5
			],
			"min":[
				0.041666666666666664
			],
			"type":"SCALAR"
		},
		{
			"bufferView":15,
			"componentType":5126,
			"count":2,
			"type":"VEC4"
		},
		{
			"bufferView":16,
			"componentType":5126,
			"count":2,
			"type":"VEC3"
		}
	],
	"bufferViews":[
		{
			"buffer":0,
			"byteLength":4656,
			"byteOffset":0,
			"target":34962
		},
		{
			"buffer":0,
			"byteLength":4656,
			"byteOffset":4656,
			"target":34962
		},
		{
			"buffer":0,
			"byteLength":3104,
			"byteOffset":9312,
			"target":34962
		},
		{
			"buffer":0,
			"byteLength":3840,
			"byteOffset":12416,
			"target":34963
		},
		{
			"buffer":0,
			"byteLength":552,
			"byteOffset":16256,
			"target":34962
		},
		{
			"buffer":0,
			"byteLength":552,
			"byteOffset":16808,
			"target":34962
		},
		{
			"buffer":0,
			"byteLength":368,
			"byteOffset":17360,
			"target":34962
		},
		{
			"buffer":0,
			"byteLength":420,
			"byteOffset":17728,
			"target":34963
		},
		{
			"buffer":0,
			"byteLength":13104,
			"byteOffset":18148,
			"target":34962
		},
		{
			"buffer":0,
			"byteLength":13104,
			"byteOffset":31252,
			"target":34962
		},
		{
			"buffer":0,
			"byteLength":8736,
			"byteOffset":44356,
			"target":34962
		},
		{
			"buffer":0,
			"byteLength":9060,
			"byteOffset":53092,
			"target":34963
		},
		{
			"buffer":0,
			"byteLength":240,
			"byteOffset":62152
		},
		{
			"buffer":0,
			"byteLength":720,
			"byteOffset":62392
		},
		{
			"buffer":0,
			"byteLength":8,
			"byteOffset":63112
		},
		{
			"buffer":0,
			"byteLength":32,
			"byteOffset":63120
		},
		{
			"buffer":0,
			"byteLength":24,
			"byteOffset":63152
		}
	],
	"buffers":[
		{
			"byteLength":63176,
			"uri":"cart.bin"
		}
	]
}
